<?xml version="1.0" standalone="no"?>
<!DOCTYPE svg PUBLIC "-//W3C//DTD SVG 20010904//EN"
 "http://www.w3.org/TR/2001/REC-SVG-20010904/DTD/svg10.dtd">
<svg version="1.0" xmlns="http://www.w3.org/2000/svg"
 width="1200.000000pt" height="428.000000pt" viewBox="0 0 1200.000000 428.000000"
 preserveAspectRatio="xMidYMid meet">
<metadata>
Created by potrace 1.16, written by Peter Selinger 2001-2019
</metadata>
<g transform="translate(0.000000,428.000000) scale(0.100000,-0.100000)"
fill="#000000" stroke="none">
<path d="M1564 4103 c-460 -508 -741 -854 -962 -1185 -328 -492 -526 -963
-587 -1395 -22 -152 -16 -445 10 -563 82 -368 346 -682 701 -835 179 -77 363
-114 609 -122 472 -16 1033 105 1685 362 221 87 -412 -184 7215 3080 935 401
1715 734 1734 742 18 8 31 16 28 19 -3 3 -1082 -281 -2398 -631 -1317 -350
-2673 -711 -3014 -801 -341 -91 -872 -232 -1180 -314 -2256 -600 -2294 -610
-2555 -646 -157 -22 -519 -25 -630 -6 -293 52 -491 149 -653 321 -266 282
-346 660 -242 1151 59 285 224 681 412 993 2 4 0 7 -4 7 -5 0 -81 -80 -169
-177z"/>
</g>
</svg>
